<svg xmlns="http://www.w3.org/2000/svg" width="40" height="40" viewBox="0 0 40 40" role="img" aria-labelledby="title desc">
	<title id="title">Dashboard</title>
	<desc id="desc">Animated dashboard icon: panels pulse in sequence (visually identical to original)</desc>
	<style>
		/* Panels use transform-box so scaling originates from each element's center */
		.panel { transform-box: fill-box; transform-origin: center; }
			/* Inner boxes: fill color; visibility is controlled by the group's animation */
			.inner { fill: currentColor; }
			/* Labels inside inner boxes */
			.label { fill: #fff; font-family: Arial, Helvetica, sans-serif; text-anchor: middle; dominant-baseline: central; pointer-events: none; }
			/* Outer boxes: hollow/frame showing the dark background through the hole */
			.outer { fill: none; stroke: currentColor; stroke-width: 1.5; }
			/* Appear animation: start invisible (scale 0) -> larger overshoot -> settle to normal size (scale 1) */
			@keyframes appear { 
				0%   { transform: scale(0); opacity: 0; }
				65%  { transform: scale(1.6); opacity: 1; }
				100% { transform: scale(1); opacity: 1; }
			}
			/* Special appear for p2: larger overshoot, touching left/right outer bounds (slightly exceeds top/bottom) */
			@keyframes appear2 { 
				0%   { transform: scale(0); opacity: 0; }
				65%  { transform: scale(2); opacity: 1; }
				100% { transform: scale(1); opacity: 1; }
			}
			/* Special appear for p1: fade in the settings icon */
			@keyframes appear3 { 
				0%   { opacity: 0; }
				100% { opacity: 1; }
			}
			/* Special appear for p4: fade in the settings icon */
			@keyframes appear4 { 
				0%   { opacity: 0; }
				100% { opacity: 1; }
			}
			/* Special appear for p2: fade in the file icon */
			@keyframes appear5 { 
				0%   { opacity: 0; }
				100% { opacity: 1; }
			}
			/* Apply appear to inner panels only; forwards keeps the final state after animation */
			/* Longer duration for a slower, smoother entrance */
			.p1 { animation: appear3 1.4s cubic-bezier(.2,.8,.2,1) 1 forwards; animation-delay: 0s; }
			.p2 { animation: appear5 1.4s cubic-bezier(.2,.8,.2,1) 1 forwards; animation-delay: 0.18s; }
			.p3 { animation: appear 1.4s cubic-bezier(.2,.8,.2,1) 1 forwards; animation-delay: 0.36s; }
			.p4 { animation: appear4 1.4s cubic-bezier(.2,.8,.2,1) 1 forwards; animation-delay: 0.54s; }
	</style>

		<!-- Inner groups: rect + numeric label; group has the appear animation applied -->
		<rect class="panel outer" x="21.666" y="5"  width="13.333" height="10" rx="0.333" />
		<rect class="panel outer" x="5"  y="5"  width="13.333" height="16.666" rx="0.333" />
		<rect class="panel outer" x="21.666" y="18.333" width="13.333" height="16.666" rx="0.333" />
		<rect class="panel outer" x="5"  y="25" width="13.333" height="10" rx="0.333" />

		<!-- Inner boxes: filled with slight transparency, drawn on top -->
		<!-- Inner groups: rect + numeric label; group has the appear animation applied -->
		<g class="panel p1">
			<svg width="20" height="10" viewBox="0 0 24 24" transform="translate(18.334,5)">
				<path id="trend-up" fill="currentColor" d="M2.7 17.625q-.3-.3-.288-.712t.288-.688l5.275-5.35Q8.55 10.3 9.4 10.3t1.425.575l2.575 2.6l5.2-5.15H17q-.425 0-.712-.288T16 7.326t.288-.712t.712-.288h4q.425 0 .713.288t.287.712v4q0 .425-.288.713t-.712.287t-.712-.287t-.288-.713v-1.6L14.825 14.9q-.575.575-1.425.575t-1.425-.575L9.4 12.325l-5.3 5.3q-.275.275-.7.275t-.7-.275">
					<animate attributeName="opacity" dur="6s" repeatCount="1" values="0;0;1;1" keyTimes="0;0.3;0.7;1" fill="freeze"/>
				</path>
				<path id="trend-down" fill="currentColor" d="M2.7 6.375q-.3.3-.288.712t.288.688l5.275 5.35Q8.55 13.7 9.4 13.7t1.425-.575l2.575 -2.6l5.2 5.15H17q-.425 0-.712.288T16 16.674t.288.712t.712.288h4q.425 0 .713-.288t.287-.712v-4q0 -.425-.288-.713t-.712-.287t-.712.287t-.288.713v1.6L14.825 9.1q-.575-.575-1.425-.575t-1.425.575L9.4 11.675l-5.3 -5.3q-.275-.275-.7-.275t-.7.275">
					<animate attributeName="opacity" dur="6s" repeatCount="1" values="1;1;0;0" keyTimes="0;0.3;0.7;1" fill="freeze"/>
				</path>
			</svg>
		</g>
		<g class="panel p2">
			<svg width="13.333" height="20" viewBox="0 0 24 24" transform="translate(5,3.333)">
				<g fill="none" stroke="currentColor" stroke-linecap="round" stroke-linejoin="round" stroke-width="2">
					<path stroke-dasharray="64" stroke-dashoffset="64" d="M13.5 3l5.5 5.5v11.5c0 0.55 -0.45 1 -1 1h-12c-0.55 0 -1 -0.45 -1 -1v-16c0 -0.55 0.45 -1 1 -1Z">
						<animate fill="freeze" attributeName="stroke-dashoffset" dur="0.6s" values="64;0"/>
					</path>
					<path d="M14.5 3.5l2.25 2.25l2.25 2.25z" opacity="0">
						<animate fill="freeze" attributeName="d" begin="0.6s" dur="0.2s" values="M14.5 3.5l2.25 2.25l2.25 2.25z;M14.5 3.5l0 4.5l4.5 0z"/>
						<set fill="freeze" attributeName="opacity" begin="0.6s" to="1"/>
					</path>
					<path stroke-dasharray="8" stroke-dashoffset="8" d="M9 13h6">
						<animate fill="freeze" attributeName="stroke-dashoffset" begin="0.8s" dur="0.2s" values="8;0"/>
					</path>
					<path stroke-dasharray="4" stroke-dashoffset="4" d="M9 17h3">
						<animate fill="freeze" attributeName="stroke-dashoffset" begin="1s" dur="0.2s" values="4;0"/>
					</path>
				</g>
			</svg>
		</g>
		<g class="panel p3">
			<svg width="10" height="15" viewBox="0 0 24 24" transform="translate(23.333,19.166)">
				<path fill="currentColor" d="M16 8h3zM5 8h8.45H13h.35zm.4-2h13.2l-.85-1H6.25zm4.6 6.75l2-1l2 1V8h-4zM14.55 21H5q-.825 0-1.412-.587T3 19V6.525q0-.35.113-.675t.337-.6L4.7 3.725q.275-.35.687-.538T6.25 3h11.5q.45 0 .863.188t.687.537l1.25 1.525q.225.275.338.6t.112.675v4.9q-.475-.175-.975-.275T19 11.05V8h-3v3.825q-.875.5-1.525 1.238t-1.025 1.662L12 14l-4 2V8H5v11h8.35q.2.575.5 1.075t.7.925M18 21v-3h-3v-2h3v-3h2v3h3v2h-3v3z"/>
			</svg>
		</g>
		<g class="panel p4">
			<svg width="14" height="7" viewBox="0 0 24 24" transform="translate(4.666,26.5)">
				<path fill="currentColor" d="M19.43 12.98c.04-.32.07-.64.07-.98s-.03-.66-.07-.98l2.11-1.65c.19-.15.24-.42.12-.64l-2-3.46c-.12-.22-.39-.3-.61-.22l-2.49 1c-.52-.4-1.08-.73-1.69-.98l-.38-2.65C14.46 2.18 14.25 2 14 2h-4c-.25 0-.46.18-.49.42l-.38 2.65c-.61.25-1.17.59-1.69.98l-2.49-1c-.23-.09-.49 0-.61.22l-2 3.46c-.13.22-.07.49.12.64l2.11 1.65c-.04.32-.07.65-.07.98s.03.66.07.98l-2.11 1.65c-.19.15-.24.42-.12.64l2 3.46c.12.22.39.3.61.22l2.49-1c.52.4 1.08.73 1.69.98l.38 2.65c.03.24.24.42.49.42h4c.25 0 .46-.18.49-.42l.38-2.65c.61-.25 1.17-.59 1.69-.98l2.49 1c.23.09.49 0 .61-.22l2-3.46c.12-.22.07-.49-.12-.64l-2.11-1.65zM12 15.5c-1.93 0-3.5-1.57-3.5-3.5s1.57-3.5 3.5-3.5s3.5 1.57 3.5 3.5s-1.57 3.5-3.5 3.5z">
					<animateTransform attributeName="transform" attributeType="XML" dur="10s" from="0 12 12" repeatCount="indefinite" to="360 12 12" type="rotate"/>
				</path>
			</svg>
		</g>

</svg>